<svg width="22" height="22" viewBox="0 0 22 22" fill="none" xmlns="http://www.w3.org/2000/svg">
<path d="M4.3163 18.4404C4.92462 17.0072 6.34492 16.002 8 16.002H14C15.6551 16.002 17.0754 17.0072 17.6837 18.4404M15 8.50198C15 10.7111 13.2091 12.502 11 12.502C8.79086 12.502 7 10.7111 7 8.50198C7 6.29283 8.79086 4.50197 11 4.50197C13.2091 4.50197 15 6.29283 15 8.50198ZM21 11.002C21 16.5249 16.5228 21.002 11 21.002C5.47715 21.002 1 16.5249 1 11.002C1 5.47912 5.47715 1.00195 11 1.00195C16.5228 1.00195 21 5.47912 21 11.002Z" stroke="black" stroke-width="2" stroke-linecap="round" stroke-linejoin="round"/>
</svg>
